<svg width="48" height="54" viewBox="0 0 48 54" fill="none" xmlns="http://www.w3.org/2000/svg">
<path d="M47.2518 13.7503H43.9183C43.4806 13.7503 43.0471 13.8365 42.6426 14.004C42.2383 14.1715 41.8708 14.417 41.5611 14.7265C41.2516 15.0363 41.0061 15.4038 40.8386 15.808C40.6711 16.2125 40.5848 16.646 40.5848 17.0838V30.4185C40.5848 34.839 38.8288 39.0784 35.7031 42.2041C32.5773 45.3299 28.3381 47.0859 23.9176 47.086C21.7288 47.086 19.5614 46.6549 17.5393 45.8173C15.5171 44.9796 13.6797 43.7519 12.132 42.2042C10.5843 40.6565 9.3566 38.8191 8.51899 36.7969C7.68139 34.7747 7.25032 32.6073 7.25034 30.4185L7.25034 17.0848C7.25047 16.647 7.16434 16.2133 6.99689 15.8088C6.82942 15.4043 6.58389 15.0365 6.27434 14.727C5.96477 14.4173 5.59724 14.1718 5.19274 14.004C4.78824 13.8365 4.35469 13.7503 3.91684 13.7503H0.583344L0.583345 30.4178C0.583345 33.482 1.18691 36.5163 2.35956 39.3474C3.53222 42.1784 5.25102 44.7507 7.4178 46.9175C9.58459 49.0842 12.1569 50.803 14.988 51.9756C17.819 53.1483 20.8533 53.7518 23.9176 53.7518C30.1061 53.7518 36.0413 51.2934 40.4173 46.9174C44.7933 42.5414 47.2518 36.6063 47.2518 30.4178V13.7503Z" fill="url(#paint0_linear_124_2661)"/>
<path d="M23.9176 40.419C26.5698 40.419 29.1133 39.3654 30.9886 37.4901C32.8641 35.6147 33.9176 33.0712 33.9176 30.419V13.7503C33.9176 11.982 34.6201 10.2865 35.8703 9.03626C37.1206 7.78601 38.8163 7.0835 40.5846 7.0835L47.2516 7.0835V0.416504L40.5848 0.416504C37.0486 0.416504 33.6571 1.82126 31.1563 4.32176C28.6558 6.8225 27.2511 10.214 27.2511 13.7503L27.2511 30.4185C27.2511 31.3026 26.8998 32.1505 26.2748 32.7757C25.6496 33.4008 24.8017 33.752 23.9176 33.752C23.0335 33.752 22.1856 33.4008 21.5604 32.7757C20.9353 32.1505 20.5841 31.3026 20.5841 30.4185L20.5841 13.7503C20.5841 10.214 19.1793 6.82251 16.6787 4.32176C14.1782 1.82126 10.7867 0.416506 7.25034 0.416506L0.583344 0.416506L0.583344 7.08451H7.25034C9.01829 7.08451 10.7139 7.78676 11.9641 9.03676C13.2143 10.2868 13.9168 11.9823 13.9171 13.7503V30.4185C13.917 31.7318 14.1756 33.0323 14.6782 34.2456C15.1807 35.459 15.9174 36.5614 16.846 37.4901C17.7747 38.4187 18.8771 39.1553 20.0905 39.6579C21.3038 40.1604 22.6043 40.4191 23.9176 40.419Z" fill="url(#paint1_linear_124_2661)"/>
<defs>
<linearGradient id="paint0_linear_124_2661" x1="23.959" y1="-10.752" x2="-12.3386" y2="49.8266" gradientUnits="userSpaceOnUse">
<stop stop-color="#FDAE8F"/>
<stop offset="1" stop-color="#FD1C68"/>
</linearGradient>
<linearGradient id="paint1_linear_124_2661" x1="23.959" y1="-10.752" x2="-12.3386" y2="49.8266" gradientUnits="userSpaceOnUse">
<stop stop-color="#FDAE8F"/>
<stop offset="1" stop-color="#FD1C68"/>
</linearGradient>
</defs>
</svg>
