<?xml version="1.0"?>
<svg xmlns="http://www.w3.org/2000/svg" id="Capa_1" enable-background="new 0 0 511.999 511.999" height="512px" viewBox="0 0 511.999 511.999" width="512px"><g><g><path d="m58.735 71.681c-4.143 0-7.5 3.357-7.5 7.5s3.357 7.5 7.5 7.5h10.304c4.143 0 7.5-3.357 7.5-7.5s-3.357-7.5-7.5-7.5z" data-original="#000000" class="active-path" data-old_color="#000000" fill="#29B6A5"/><path d="m109.65 71.681c-4.143 0-7.5 3.357-7.5 7.5s3.357 7.5 7.5 7.5h10.305c4.143 0 7.5-3.357 7.5-7.5s-3.357-7.5-7.5-7.5z" data-original="#000000" class="active-path" data-old_color="#000000" fill="#29B6A5"/><path d="m170.871 86.681c4.143 0 7.5-3.357 7.5-7.5s-3.357-7.5-7.5-7.5h-10.305c-4.143 0-7.5 3.357-7.5 7.5s3.357 7.5 7.5 7.5z" data-original="#000000" class="active-path" data-old_color="#000000" fill="#29B6A5"/><path d="m368.073 302.688c2.928 2.928 7.677 2.931 10.606.001 2.93-2.929 2.93-7.678.001-10.606l-138.037-138.064c-2.929-2.93-7.678-2.929-10.606-.001-2.93 2.929-2.93 7.678-.001 10.606l2.406 2.406-16.677 40.43c-2.94-2.247-7.158-2.034-9.846.654-2.93 2.929-2.93 7.678-.001 10.606l3.683 3.683-12.993 31.497-56.307 56.296c-8.289 8.287-8.29 21.772-.003 30.061l1.013 1.013-5.302 5.301-.019-.019c-2.929-2.929-7.678-2.93-10.606-.001-2.93 2.929-2.93 7.678-.001 10.606l.497.497c-9.224 13.763-7.766 32.613 4.383 44.764 6.908 6.909 15.98 10.363 25.056 10.363 6.885 0 13.768-1.994 19.707-5.973l.497.497c1.465 1.465 3.384 2.197 5.304 2.197 1.919 0 3.839-.732 5.303-2.196 2.93-2.929 2.93-7.678.001-10.606l-.019-.019 5.302-5.301 1.012 1.013c4.145 4.146 9.587 6.218 15.032 6.218 5.441 0 10.885-2.072 15.028-6.215l1.039-1.039 19.835 19.838c2.922 2.924 7.671 2.935 10.606.001 2.929-2.928 2.93-7.677.001-10.606l-19.835-19.839 23.752-23.748 15.518 15.522c.116.115.154.29.099.443l-3.866 10.682c-2.027 5.602-.615 11.942 3.597 16.154l21.722 21.726c1.924 1.925 1.924 5.056-.001 6.98l-3.046 3.045c-1.924 1.924-5.057 1.924-6.98-.002l-9.757-9.758c-2.93-2.928-7.678-2.928-10.607 0-2.929 2.93-2.929 7.678 0 10.607l9.757 9.757c7.769 7.771 20.419 7.778 28.193.003l3.046-3.045c7.773-7.772 7.775-20.42.003-28.193l-21.722-21.727c-.116-.115-.154-.289-.099-.442l3.866-10.683c2.026-5.602.615-11.943-3.597-16.154l-15.518-15.521 10.302-10.3 31.496-12.985 3.684 3.684c2.928 2.928 7.677 2.931 10.606.001 2.689-2.688 2.903-6.907.656-9.847l40.432-16.669zm-176.88-1.726c-.001.001-.001.001 0 0l-13.107 13.104c-1.884 1.884-4.925 1.877-6.803-.001l-6.817-6.818 19.91-19.906 6.817 6.82c1.884 1.882 1.877 4.924 0 6.801zm-50.324 90.85c-3.858-3.859-5.983-8.99-5.982-14.447 0-3.072.696-6.031 1.974-8.727l27.175 27.18c-7.58 3.571-16.911 2.252-23.167-4.006zm39.937-11.04-5.302 5.301-28.89-28.895 5.302-5.301c10.104 10.106 18.785 18.789 28.89 28.895zm22.225 1.015c-14.239-14.241-43.91-43.919-52.126-52.136-2.438-2.439-2.438-6.408.001-8.848l2.952-2.951 6.818 6.819c7.733 7.735 20.275 7.747 28.017.003l13.105-13.104c7.743-7.741 7.746-20.273.003-28.016l-6.818-6.819 7.987-7.985 60.973 60.983-45.711 45.703c-.004.004-.008.007-.011.01s-.006.008-.01.011l-6.332 6.331c-2.441 2.44-6.409 2.438-8.848-.001zm73.284-60.893c-7.667-7.669-56.807-56.817-64.504-64.515l9.275-22.485 77.715 77.73zm37.507-15.464-86.54-86.556 16.646-40.354 110.252 110.272z" data-original="#000000" class="active-path" data-old_color="#000000" fill="#29B6A5"/><path d="m344.297 177.779-20.095 20.095c-2.929 2.93-2.929 7.678 0 10.607 2.931 2.929 7.678 2.928 10.607 0l20.095-20.095c2.929-2.93 2.929-7.678 0-10.607-2.929-2.927-7.677-2.927-10.607 0z" data-original="#000000" class="active-path" data-old_color="#000000" fill="#29B6A5"/><path d="m297.716 175.944v-28.418c0-4.143-3.357-7.5-7.5-7.5s-7.5 3.357-7.5 7.5v28.418c0 4.143 3.357 7.5 7.5 7.5s7.5-3.357 7.5-7.5z" data-original="#000000" class="active-path" data-old_color="#000000" fill="#29B6A5"/><path d="m348.694 242.693c0 4.143 3.357 7.5 7.5 7.5h28.418c4.143 0 7.5-3.357 7.5-7.5s-3.357-7.5-7.5-7.5h-28.418c-4.142 0-7.5 3.358-7.5 7.5z" data-original="#000000" class="active-path" data-old_color="#000000" fill="#29B6A5"/><path d="m122.303 175.944c0-4.143-3.357-7.5-7.5-7.5h-64.159c-4.143 0-7.5 3.357-7.5 7.5s3.357 7.5 7.5 7.5h64.159c4.142 0 7.5-3.357 7.5-7.5z" data-original="#000000" class="active-path" data-old_color="#000000" fill="#29B6A5"/><path d="m50.644 205.918c-4.143 0-7.5 3.357-7.5 7.5s3.357 7.5 7.5 7.5h44.159c4.143 0 7.5-3.357 7.5-7.5s-3.357-7.5-7.5-7.5z" data-original="#000000" class="active-path" data-old_color="#000000" fill="#29B6A5"/><path d="m456.049 365.523h-106.448c-4.143 0-7.5 3.357-7.5 7.5s3.357 7.5 7.5 7.5h106.448c4.143 0 7.5-3.357 7.5-7.5s-3.358-7.5-7.5-7.5z" data-original="#000000" class="active-path" data-old_color="#000000" fill="#29B6A5"/><path d="m456.049 398.567h-66.448c-4.143 0-7.5 3.357-7.5 7.5s3.357 7.5 7.5 7.5h66.448c4.143 0 7.5-3.357 7.5-7.5s-3.358-7.5-7.5-7.5z" data-original="#000000" class="active-path" data-old_color="#000000" fill="#29B6A5"/><path d="m460.651 33.667h-299.978c-4.143 0-7.5 3.357-7.5 7.5s3.357 7.5 7.5 7.5h299.979c20.042 0 36.348 16.306 36.348 36.349v24.679h-482v-24.679c0-20.043 16.306-36.349 36.348-36.349h79.338c4.143 0 7.5-3.357 7.5-7.5s-3.357-7.5-7.5-7.5h-79.338c-28.314 0-51.348 23.035-51.348 51.349v341.969c0 28.313 23.034 51.348 51.348 51.348h409.304c28.313 0 51.348-23.034 51.348-51.348v-18.59c0-4.143-3.357-7.5-7.5-7.5s-7.5 3.357-7.5 7.5v18.59c0 20.042-16.306 36.348-36.348 36.348h-409.304c-20.042-.001-36.348-16.307-36.348-36.349v-302.29h481.999v253.713c0 4.143 3.357 7.5 7.5 7.5s7.5-3.357 7.5-7.5v-293.391c0-28.314-23.034-51.349-51.348-51.349z" data-original="#000000" class="active-path" data-old_color="#000000" fill="#29B6A5"/></g></g> </svg>
