<?xml version="1.0"?>
<svg xmlns="http://www.w3.org/2000/svg" height="512px" viewBox="0 0 64 64" width="512px"><g><g id="data_analysis-finance-arrow-graph-money" data-name="data analysis-finance-arrow-graph-money"><path d="m61 2h-30a1 1 0 0 0 -1 1v13h-23a5 5 0 0 0 -5 5v26a5 5 0 0 0 5 5h12v4h-1a3.009 3.009 0 0 0 -3 3v2a1 1 0 0 0 1 1h18a1 1 0 0 0 1-1v-2a3.009 3.009 0 0 0 -3-3h-1v-4h12a5 5 0 0 0 5-5v-19h13a1 1 0 0 0 1-1v-24a1 1 0 0 0 -1-1zm-29 56a1 1 0 0 1 1 1v1h-16v-1a1 1 0 0 1 1-1zm-11-2v-4h8v4zm25-9a3.009 3.009 0 0 1 -3 3h-36a3.009 3.009 0 0 1 -3-3v-1h42zm0-3h-42v-23a3.009 3.009 0 0 1 3-3h23v9a1 1 0 0 0 1 1h15zm14-18h-28v-22h28z" data-original="#000000" class="active-path" data-old_color="#000000" fill="#29B6A5"/><path d="m17 20a11 11 0 1 0 11 11 11.013 11.013 0 0 0 -11-11zm0 20a9 9 0 1 1 9-9 9.01 9.01 0 0 1 -9 9z" data-original="#000000" class="active-path" data-old_color="#000000" fill="#29B6A5"/><path d="m17 28a1 1 0 0 1 1 1h2a3 3 0 0 0 -2-2.816v-1.184h-2v1.184a2.993 2.993 0 0 0 1 5.816 1 1 0 1 1 -1 1h-2a3 3 0 0 0 2 2.816v1.184h2v-1.184a2.993 2.993 0 0 0 -1-5.816 1 1 0 0 1 0-2z" data-original="#000000" class="active-path" data-old_color="#000000" fill="#29B6A5"/><path d="m61.77 36.36-5-6a1.032 1.032 0 0 0 -1.54 0l-5 6a1 1 0 0 0 .77 1.64h2v23a1 1 0 0 0 1 1h4a1 1 0 0 0 1-1v-23h2a1 1 0 0 0 .77-1.64zm-3.77-.36a1 1 0 0 0 -1 1v23h-2v-23a1 1 0 0 0 -1-1h-.87l2.87-3.44 2.87 3.44z" data-original="#000000" class="active-path" data-old_color="#000000" fill="#29B6A5"/><path d="m27.64 7.23-6-5a1 1 0 0 0 -1.64.77v2h-17a1 1 0 0 0 -1 1v4a1 1 0 0 0 1 1h17v2a1 1 0 0 0 .58.91 1.023 1.023 0 0 0 .42.09 1 1 0 0 0 .64-.23l6-5a1 1 0 0 0 0-1.54zm-5.64 3.63v-.86a1 1 0 0 0 -1-1h-17v-2h17a1 1 0 0 0 1-1v-.86l3.44 2.86z" data-original="#000000" class="active-path" data-old_color="#000000" fill="#29B6A5"/><path d="m36 24h4a1 1 0 0 0 1-1v-8a1 1 0 0 0 -1-1h-4a1 1 0 0 0 -1 1v8a1 1 0 0 0 1 1zm1-8h2v6h-2z" data-original="#000000" class="active-path" data-old_color="#000000" fill="#29B6A5"/><path d="m44 24h4a1 1 0 0 0 1-1v-12a1 1 0 0 0 -1-1h-4a1 1 0 0 0 -1 1v12a1 1 0 0 0 1 1zm1-12h2v10h-2z" data-original="#000000" class="active-path" data-old_color="#000000" fill="#29B6A5"/><path d="m52 24h4a1 1 0 0 0 1-1v-16a1 1 0 0 0 -1-1h-4a1 1 0 0 0 -1 1v16a1 1 0 0 0 1 1zm1-16h2v14h-2z" data-original="#000000" class="active-path" data-old_color="#000000" fill="#29B6A5"/><path d="m30 30h4v2h-4z" data-original="#000000" class="active-path" data-old_color="#000000" fill="#29B6A5"/><path d="m36 30h6v2h-6z" data-original="#000000" class="active-path" data-old_color="#000000" fill="#29B6A5"/><path d="m30 34h4v2h-4z" data-original="#000000" class="active-path" data-old_color="#000000" fill="#29B6A5"/><path d="m36 34h6v2h-6z" data-original="#000000" class="active-path" data-old_color="#000000" fill="#29B6A5"/><path d="m30 38h4v2h-4z" data-original="#000000" class="active-path" data-old_color="#000000" fill="#29B6A5"/><path d="m36 38h6v2h-6z" data-original="#000000" class="active-path" data-old_color="#000000" fill="#29B6A5"/></g></g> </svg>
