<svg width="500" height="50" viewBox="0 0 500 50" fill="none" xmlns="http://www.w3.org/2000/svg">
<g clip-path="url(#clip0_3_3306)">
<path d="M4.92707 41.1127V16.0739H0V45.8348H19.152V41.1127H4.92707Z" fill="white"/>
<path d="M28.1314 20.7166H43.5484V16.0739H23.2043V45.8348H43.5484V41.1524H28.1314V33.2162H41.2041V28.6528H28.1314V20.7166Z" fill="white"/>
<path d="M58.068 16.0739L45.5118 45.8348H50.6773L54.1739 37.4621H66.9685L70.465 45.8348H75.6306L63.1142 16.0739H58.068ZM65.0611 32.8987H56.0812L60.5713 22.1451L65.0611 32.8987Z" fill="white"/>
<path d="M94.4609 34.1684C98.792 33.2559 101.852 29.6449 101.852 25.2402C101.852 20.1611 97.7987 16.0739 92.3154 16.0739H78.9645V45.8348H83.8917V34.4065H88.6199L97.2423 45.8348H103.282L94.4609 34.1684ZM92.1167 20.7166C94.9774 20.7166 96.9245 22.6609 96.9245 25.2402C96.9245 27.8591 94.9774 29.8036 92.1167 29.8036H83.8917V20.7166H92.1167Z" fill="white"/>
<path d="M112.645 23.3753L127.744 45.8348H133.545V16.0739H128.618V38.573L113.44 16.0739H107.718V45.8348H112.645V23.3753Z" fill="white"/>
<path d="M164.897 17.8788L184.526 47.0781H192.069V8.38641H185.663V37.6374L165.93 8.38641H158.491V47.0781H164.897V17.8788Z" fill="white"/>
<path d="M207.374 14.4223H227.417V8.38641H200.967V47.0781H227.417V40.9907H207.374V30.6729H224.369V24.74H207.374V14.4223Z" fill="white"/>
<path d="M246.294 8.38641L229.969 47.0781H236.685L241.23 36.1928H257.864L262.412 47.0781H269.127L252.855 8.38641H246.294ZM255.386 30.2601H243.711L249.547 16.2795L255.386 30.2601Z" fill="white"/>
<path d="M293.608 31.911C299.239 30.7245 303.216 26.0299 303.216 20.3034C303.216 13.7001 297.948 8.38641 290.819 8.38641H273.461V47.0781H279.866V32.2206H286.015L297.224 47.0781H305.077L293.608 31.911ZM290.56 14.4223C294.279 14.4223 296.81 16.9502 296.81 20.3034C296.81 23.7083 294.279 26.2361 290.56 26.2361H279.866V14.4223H290.56Z" fill="white"/>
<path d="M348.369 49.02C359.116 49.02 368.271 42.0989 371.64 32.5744L364.392 29.6535C362.23 36.5747 356 41.4639 348.369 41.4639C339.023 41.4639 331.521 33.9077 331.521 24.5102C331.521 15.1762 339.023 7.55656 348.369 7.55656C356 7.55656 362.23 12.4458 364.392 19.367L371.578 16.4461C368.271 6.85808 359.116 0.000427246 348.369 0.000427246C334.699 0.000427246 323.573 11.0489 323.573 24.5102C323.573 37.9716 334.699 49.02 348.369 49.02Z" fill="white"/>
<path d="M386.717 40.7653V0.698853H378.832V48.3216H409.479V40.7653H386.717Z" fill="white"/>
<path d="M432.673 49.0199C443.864 49.0199 452.067 40.702 452.067 29.3995V0.698853H444.181V29.4629C444.181 36.3841 439.35 41.4639 432.673 41.4639C425.935 41.4639 421.101 36.3841 421.101 29.4629V0.698853H413.217V29.3995C413.217 40.702 421.484 49.0199 432.673 49.0199Z" fill="white"/>
<path d="M493.306 24.1292C496.485 21.9069 498.456 18.351 498.456 14.1602C498.456 6.66757 492.289 0.698853 484.659 0.698853H462.469V48.3216H485.866C493.624 48.3216 499.727 42.3528 499.727 34.8601C499.727 30.0979 497.248 26.2247 493.306 24.1292ZM490.636 14.5412C490.636 18.224 487.902 21.0814 484.342 21.0814H470.226V7.93751H484.342C487.902 7.93751 490.636 10.8584 490.636 14.5412ZM470.226 41.0828V27.939H485.613C489.173 27.939 491.907 30.7964 491.907 34.4792C491.907 38.1621 489.173 41.0828 485.613 41.0828H470.226Z" fill="white"/>
</g>
<defs>
<clipPath id="clip0_3_3306">
<rect width="500" height="49.0196" fill="white"/>
</clipPath>
</defs>
</svg>
