<svg width="250" height="103" viewBox="0 0 250 103" fill="none" xmlns="http://www.w3.org/2000/svg">
<g clip-path="url(#clip0_3_3290)">
<path fill-rule="evenodd" clip-rule="evenodd" d="M52.3213 0.853114V60.5368C52.3213 61.0074 51.9324 61.3896 51.4533 61.3896H45.0802C42.1358 61.3896 39.3908 59.923 37.7919 57.4946L9.10705 13.9443L10.0897 35.6941V60.5368C10.0897 61.0074 9.7008 61.3896 9.22163 61.3896H0.86833C0.389163 61.3896 0.000274658 61.0074 0.000274658 60.5368V0.853114C0.000274658 0.382464 0.389163 0.000488281 0.86833 0.000488281H7.15738C10.0992 0.000488281 12.8414 1.46444 14.4412 3.88931L43.1244 47.358L42.2322 25.6961V0.853114C42.2322 0.382464 42.621 0.000488281 43.1002 0.000488281H51.4533C51.9324 0.000488281 52.3213 0.382464 52.3213 0.853114Z" fill="#FCFCFC"/>
<path fill-rule="evenodd" clip-rule="evenodd" d="M136.012 61.3895H127.164C126.554 61.3895 126.135 60.7875 126.355 60.2289L149.772 0.81718C149.966 0.325216 150.448 0.000366211 150.986 0.000366211H162.058C162.596 0.000366211 163.079 0.325216 163.273 0.81718L186.69 60.2289C186.911 60.7875 186.491 61.3895 185.88 61.3895H177.032C176.672 61.3895 176.349 61.1703 176.221 60.8386L157.334 11.9243C157.051 11.1911 155.995 11.1911 155.711 11.9243L136.824 60.8386C136.696 61.1703 136.373 61.3895 136.012 61.3895Z" fill="#FCFCFC"/>
<path fill-rule="evenodd" clip-rule="evenodd" d="M249.814 60.0114L232.251 37.9736C242.162 36.132 247.966 29.5547 247.966 19.469C247.966 7.89379 240.286 0.000183105 226.715 0.000183105H202.214C201.495 0.000183105 200.911 0.573147 200.911 1.27912C200.911 5.80401 204.646 9.47198 209.252 9.47198H225.644C233.859 9.47198 237.787 13.5936 237.787 19.5568C237.787 25.521 233.947 29.7303 225.644 29.7303H202.214C201.495 29.7303 200.911 30.3025 200.911 31.0092V60.5367C200.911 61.0072 201.3 61.3892 201.779 61.3892H210.134C210.613 61.3892 211.002 61.0072 211.002 60.5367V38.5006H220.644L235.895 58.0486C237.537 60.1545 240.084 61.3892 242.785 61.3892H249.13C249.854 61.3892 250.26 60.5706 249.814 60.0114Z" fill="#FCFCFC"/>
<path fill-rule="evenodd" clip-rule="evenodd" d="M111.309 51.9181H82.3319C81.8517 51.9181 81.4639 51.5361 81.4639 51.0653V35.6694C81.4639 35.1989 81.8517 34.8169 82.3319 34.8169H109.077C109.557 34.8169 109.946 34.435 109.946 33.9644V26.1969C109.946 25.7262 109.557 25.3443 109.077 25.3443H72.6755C71.9569 25.3443 71.3736 25.9172 71.3736 26.6232V60.11C71.3736 60.8169 71.9569 61.3889 72.6755 61.3889H111.309C111.789 61.3889 112.177 61.0078 112.177 60.5364V52.7706C112.177 52.3 111.789 51.9181 111.309 51.9181ZM111.309 0H72.5333C71.8925 0 71.3736 0.510722 71.3736 1.13911C71.3736 5.74072 75.1711 9.4718 79.8569 9.4718H111.309C111.789 9.4718 112.177 9.08983 112.177 8.61919V0.852625C112.177 0.381975 111.789 0 111.309 0Z" fill="#FCFCFC"/>
<path fill-rule="evenodd" clip-rule="evenodd" d="M3.77692 80.7083V86.1531C3.77692 86.3356 3.92708 86.4831 4.11283 86.4831H14.1024C14.2873 86.4831 14.4384 86.6314 14.4384 86.8139V89.6983C14.4384 89.8808 14.2873 90.0292 14.1024 90.0292H4.11283C3.92708 90.0292 3.77692 90.1767 3.77692 90.3592V99.4806C3.77692 99.6622 3.62672 99.8106 3.44097 99.8106H0.336806C0.151042 99.8106 0 99.6622 0 99.4806V77.1631C0 76.9806 0.151042 76.8331 0.336806 76.8331H14.9366C15.1224 76.8331 15.2734 76.9806 15.2734 77.1631V80.0483C15.2734 80.23 15.1224 80.3783 14.9366 80.3783H4.11283C3.92708 80.3783 3.77692 80.5258 3.77692 80.7083Z" fill="#FCFCFC"/>
<path fill-rule="evenodd" clip-rule="evenodd" d="M25.9033 88.322C25.9033 93.1145 29.4789 96.6589 34.2244 96.6589C38.9361 96.6589 42.5117 93.1145 42.5117 88.322C42.5117 83.5295 38.9361 79.9842 34.2244 79.9842C29.4789 79.9842 25.9033 83.5295 25.9033 88.322ZM46.3555 88.322C46.3225 95.0834 41.075 100.204 34.2244 100.204C27.3729 100.204 22.0934 95.0834 22.0934 88.322C22.0934 81.5597 27.3729 76.4389 34.2244 76.4389C41.075 76.4389 46.3225 81.5597 46.3555 88.322Z" fill="#FCFCFC"/>
<path fill-rule="evenodd" clip-rule="evenodd" d="M72.957 76.8331C73.1428 76.8331 73.2928 76.9806 73.2928 77.1631V90.6525C73.2928 97.0531 69.2156 100.204 63.8345 100.204C58.4545 100.204 54.3778 97.0531 54.3778 90.6525V77.1631C54.3778 76.9806 54.5281 76.8331 54.7139 76.8331H57.8839C58.0698 76.8331 58.22 76.9806 58.22 77.1631V90.4222C58.22 94.8867 60.5934 96.6592 63.8345 96.6592C67.0767 96.6592 69.4492 94.8867 69.4492 90.4222V77.1631C69.4492 76.9806 69.6 76.8331 69.785 76.8331H72.957Z" fill="#FCFCFC"/>
<path fill-rule="evenodd" clip-rule="evenodd" d="M101.6 77.1628V99.4803C101.6 99.6628 101.449 99.8103 101.264 99.8103H98.9502C97.8105 99.8103 96.748 99.2425 96.1291 98.3028L85.4252 82.0528L85.7933 90.1928V99.4803C85.7933 99.6628 85.6422 99.8103 85.4564 99.8103H82.3522C82.1664 99.8103 82.0164 99.6628 82.0164 99.4803V77.1628C82.0164 76.9814 82.1664 76.8331 82.3522 76.8331H84.6344C85.7733 76.8331 86.835 77.4 87.4547 78.3386L98.1577 94.5581L97.8236 86.4514V77.1628C97.8236 76.9814 97.9747 76.8331 98.1594 76.8331H101.264C101.449 76.8331 101.6 76.9814 101.6 77.1628Z" fill="#FCFCFC"/>
<path fill-rule="evenodd" clip-rule="evenodd" d="M127.537 88.3219C127.537 83.6605 124.095 80.378 119.383 80.378H115.275C115.089 80.378 114.938 80.5255 114.938 80.708V95.935C114.938 96.1175 115.089 96.265 115.275 96.265H119.383C124.095 96.265 127.537 93.0155 127.537 88.3219ZM131.313 88.3219C131.313 94.9519 126.134 99.8103 119.349 99.8103H111.498C111.313 99.8103 111.162 99.6628 111.162 99.4803V77.1628C111.162 76.9811 111.313 76.8328 111.498 76.8328H119.349C126.167 76.8328 131.313 81.6586 131.313 88.3219Z" fill="#FCFCFC"/>
<path fill-rule="evenodd" clip-rule="evenodd" d="M150.623 89.68L147.4 81.3242C147.291 81.0403 146.881 81.0403 146.772 81.3242L143.549 89.68C143.465 89.8958 143.628 90.1267 143.863 90.1267H150.309C150.544 90.1267 150.707 89.8958 150.623 89.68ZM151.933 93.6397H142.239C142.099 93.6397 141.974 93.7239 141.924 93.8528L139.716 99.5969C139.666 99.7256 139.541 99.81 139.401 99.81H136.114C135.878 99.81 135.715 99.5772 135.8 99.3608L144.597 77.0442C144.647 76.917 144.772 76.8336 144.911 76.8336H149.261C149.4 76.8336 149.524 76.917 149.575 77.0442L158.372 99.3608C158.457 99.5772 158.294 99.81 158.058 99.81H154.771C154.631 99.81 154.506 99.7256 154.457 99.5969L152.248 93.8528C152.198 93.7239 152.073 93.6397 151.933 93.6397Z" fill="#FCFCFC"/>
<path fill-rule="evenodd" clip-rule="evenodd" d="M178.699 80.3781H172.219C172.034 80.3781 171.883 80.5256 171.883 80.7081V99.4803C171.883 99.6628 171.733 99.8103 171.548 99.8103H168.443C168.258 99.8103 168.108 99.6628 168.108 99.4803V80.7081C168.108 80.5256 167.957 80.3781 167.771 80.3781H163.394C161.587 80.3781 160.121 78.9389 160.121 77.1628C160.121 76.9814 160.271 76.8331 160.457 76.8331H178.699C178.885 76.8331 179.035 76.9814 179.035 77.1628V80.0481C179.035 80.2306 178.885 80.3781 178.699 80.3781Z" fill="#FCFCFC"/>
<path fill-rule="evenodd" clip-rule="evenodd" d="M187.593 76.8331H190.697C190.883 76.8331 191.033 76.9806 191.033 77.1631V99.4806C191.033 99.6622 190.883 99.8106 190.697 99.8106H187.593C187.407 99.8106 187.257 99.6622 187.257 99.4806V77.1631C187.257 76.9806 187.407 76.8331 187.593 76.8331Z" fill="#FCFCFC"/>
<path fill-rule="evenodd" clip-rule="evenodd" d="M202.898 88.322C202.898 93.1145 206.473 96.6589 211.219 96.6589C215.931 96.6589 219.506 93.1145 219.506 88.322C219.506 83.5295 215.931 79.9842 211.219 79.9842C206.473 79.9842 202.898 83.5295 202.898 88.322ZM223.35 88.322C223.316 95.0834 218.07 100.204 211.219 100.204C204.367 100.204 199.088 95.0834 199.088 88.322C199.088 81.5597 204.367 76.4389 211.219 76.4389C218.07 76.4389 223.316 81.5597 223.35 88.322Z" fill="#FCFCFC"/>
<path fill-rule="evenodd" clip-rule="evenodd" d="M250.001 77.1628V99.4803C250.001 99.6628 249.85 99.8103 249.665 99.8103H247.35C246.211 99.8103 245.148 99.2425 244.529 98.3028L233.826 82.0528L234.193 90.1928V99.4803C234.193 99.6628 234.042 99.8103 233.857 99.8103H230.753C230.568 99.8103 230.417 99.6628 230.417 99.4803V77.1628C230.417 76.9814 230.568 76.8331 230.753 76.8331H233.035C234.174 76.8331 235.236 77.4 235.856 78.3386L246.559 94.5581L246.224 86.4514V77.1628C246.224 76.9814 246.375 76.8331 246.561 76.8331H249.665C249.85 76.8331 250.001 76.9814 250.001 77.1628Z" fill="#FCFCFC"/>
</g>
<defs>
<clipPath id="clip0_3_3290">
<rect width="250" height="102.778" fill="white"/>
</clipPath>
</defs>
</svg>
