<?xml version="1.0" encoding="utf-8"?>
<!-- Generator: Adobe Illustrator 25.0.1, SVG Export Plug-In . SVG Version: 6.00 Build 0)  -->
<svg version="1.0" id="katman_1" xmlns="http://www.w3.org/2000/svg" xmlns:xlink="http://www.w3.org/1999/xlink" x="0px" y="0px"
	 viewBox="0 0 458 274" style="enable-background:new 0 0 458 274;" xml:space="preserve">
<path d="M229.2,110.8v52.5c0,0.4-0.3,0.8-0.8,0.8h-5.5c-2.5,0-4.9-1.3-6.3-3.4l-24.8-38.3l0.8,19.1v21.9c0,0.4-0.3,0.8-0.8,0.8h-7.2
	c-0.4,0-0.8-0.3-0.8-0.8v-52.6c0-0.4,0.3-0.8,0.8-0.8h5.4c2.5,0,4.9,1.3,6.3,3.4l24.8,38.2l-0.8-19.1v-21.7c0-0.4,0.3-0.8,0.8-0.8
	h7.2C228.9,110,229.2,110.3,229.2,110.8L229.2,110.8z"/>
<path d="M303,164h-7.6c-0.5,0-0.9-0.5-0.7-1l20.2-52.3c0.2-0.4,0.6-0.7,1-0.7h9.6c0.5,0,0.9,0.3,1,0.7l20.3,52.3
	c0.2,0.5-0.2,1-0.7,1h-7.6c-0.3,0-0.6-0.2-0.7-0.5l-16.3-43c-0.2-0.6-1.2-0.6-1.4,0l-16.3,43C303.6,163.8,303.3,164,303,164L303,164
	z"/>
<path d="M399.8,162.8l-15.2-19.4c8.6-1.6,13.6-7.4,13.6-16.3c0-10.2-6.6-17.1-18.4-17.1h-21.2c-0.6,0-1.1,0.5-1.1,1.1
	c0,4,3.2,7.2,7.2,7.2H379c7.1,0,10.5,3.6,10.5,8.9c0,5.3-3.3,8.9-10.5,8.9h-20.2c-0.6,0-1.1,0.5-1.1,1.1v26c0,0.4,0.3,0.8,0.8,0.8
	h7.2c0.4,0,0.8-0.3,0.8-0.8v-19.3h8.3l13.2,17.2c1.4,1.9,3.6,2.9,6,2.9h5.5C399.9,164,400.2,163.3,399.8,162.8L399.8,162.8z"/>
<path d="M280.2,110h-33.5c-0.6,0-1,0.4-1,1c0,4,3.3,7.3,7.3,7.3h27.2c0.4,0,0.8-0.3,0.8-0.8v-6.8C280.9,110.3,280.6,110,280.2,110z
	 M280.2,155.7h-25c-0.4,0-0.8-0.3-0.8-0.8v-13.5c0-0.4,0.3-0.8,0.8-0.8h23.1c0.4,0,0.8-0.3,0.8-0.8V133c0-0.4-0.3-0.8-0.8-0.8h-31.5
	c-0.6,0-1.1,0.5-1.1,1.1v29.5c0,0.6,0.5,1.1,1.1,1.1h33.4c0.4,0,0.8-0.3,0.8-0.8v-6.8C280.9,156,280.6,155.7,280.2,155.7
	L280.2,155.7z"/>
<path d="M130.2,96.6l-18.8,27.9c-1.3,1.9,1.2,4.2,3,2.6l18.5-16.1c0.5-0.4,1.2-0.1,1.2,0.6v50.3c0,0.7-0.9,1-1.3,0.5l-56-67
	C75,93.2,72.4,92,69.5,92h-2c-5.2,0-9.5,4.3-9.5,9.6v70.8c0,5.3,4.3,9.6,9.6,9.6c3.3,0,6.4-1.7,8.2-4.6l18.8-27.9
	c1.3-1.9-1.2-4.2-3-2.6l-18.5,16c-0.5,0.4-1.2,0.1-1.2-0.6v-50.2c0-0.7,0.9-1,1.3-0.5l56,67c1.8,2.2,4.5,3.4,7.3,3.4h2
	c5.3,0,9.6-4.3,9.6-9.6v-70.8c-0.1-5.3-4.4-9.6-9.7-9.6C135.1,92,132,93.7,130.2,96.6z"/>
</svg>
