<?xml version="1.0" encoding="UTF-8"?> <svg xmlns="http://www.w3.org/2000/svg" width="90" height="37" viewBox="0 0 90 37" fill="none"><g clip-path="url(#clip0_365:3273)"><path fill-rule="evenodd" clip-rule="evenodd" d="M18.8357 0.307159V21.7933C18.8357 21.9627 18.6957 22.1003 18.5232 22.1003H16.2289C15.1689 22.1003 14.1807 21.5723 13.6051 20.6981L3.27856 5.01999L3.63231 12.8499V21.7933C3.63231 21.9627 3.49231 22.1003 3.31981 22.1003H0.312622C0.140122 22.1003 0.00012207 21.9627 0.00012207 21.7933V0.307159C0.00012207 0.137725 0.140122 0.000213623 0.312622 0.000213623H2.57668C3.63575 0.000213623 4.62293 0.527238 5.19887 1.40019L15.5248 17.0489L15.2036 9.25062V0.307159C15.2036 0.137725 15.3436 0.000213623 15.5161 0.000213623H18.5232C18.6957 0.000213623 18.8357 0.137725 18.8357 0.307159Z" fill="#24272A"></path><path fill-rule="evenodd" clip-rule="evenodd" d="M48.9644 22.1002H45.7791C45.5594 22.1002 45.4085 21.8835 45.4879 21.6824L53.9179 0.294175C53.9879 0.117068 54.1613 0.00012207 54.355 0.00012207H58.341C58.5347 0.00012207 58.7085 0.117068 58.7782 0.294175L67.2085 21.6824C67.2879 21.8835 67.1366 22.1002 66.9169 22.1002H63.7316C63.6019 22.1002 63.4857 22.0213 63.4397 21.9019L56.6404 4.29275C56.5385 4.02878 56.1582 4.02878 56.056 4.29275L49.2566 21.9019C49.2107 22.0213 49.0941 22.1002 48.9644 22.1002Z" fill="#24272A"></path><path fill-rule="evenodd" clip-rule="evenodd" d="M89.9331 21.6041L83.6103 13.6705C87.1784 13.0075 89.2678 10.6397 89.2678 7.00884C89.2678 2.84176 86.5031 6.10352e-05 81.6175 6.10352e-05H72.7969C72.5381 6.10352e-05 72.3281 0.206328 72.3281 0.460478C72.3281 2.08944 73.6725 3.40991 75.3306 3.40991H81.2319C84.1894 3.40991 85.6034 4.89368 85.6034 7.04046C85.6034 9.18754 84.2209 10.7029 81.2319 10.7029H72.7969C72.5381 10.7029 72.3281 10.9089 72.3281 11.1633V21.7932C72.3281 21.9626 72.4681 22.1001 72.6406 22.1001H75.6481C75.8206 22.1001 75.9606 21.9626 75.9606 21.7932V13.8602H79.4319L84.9222 20.8975C85.5134 21.6556 86.4303 22.1001 87.4025 22.1001H89.6869C89.9475 22.1001 90.0937 21.8054 89.9331 21.6041Z" fill="#24272A"></path><path fill-rule="evenodd" clip-rule="evenodd" d="M40.0713 18.6905H29.6395C29.4666 18.6905 29.327 18.553 29.327 18.3835V12.841C29.327 12.6716 29.4666 12.5341 29.6395 12.5341H39.2679C39.4404 12.5341 39.5804 12.3966 39.5804 12.2272V9.43089C39.5804 9.26145 39.4404 9.12394 39.2679 9.12394H26.1632C25.9045 9.12394 25.6945 9.33021 25.6945 9.58436V21.6396C25.6945 21.8941 25.9045 22.1 26.1632 22.1H40.0713C40.2441 22.1 40.3838 21.9628 40.3838 21.7931V18.9974C40.3838 18.828 40.2441 18.6905 40.0713 18.6905ZM40.0713 0H26.112C25.8813 0 25.6945 0.18386 25.6945 0.410078C25.6945 2.06666 27.0616 3.40985 28.7485 3.40985H40.0713C40.2441 3.40985 40.3838 3.27234 40.3838 3.10291V0.306945C40.3838 0.137511 40.2441 0 40.0713 0Z" fill="#24272A"></path><path fill-rule="evenodd" clip-rule="evenodd" d="M1.35969 29.055V31.0151C1.35969 31.0808 1.41375 31.1339 1.48062 31.1339H5.07688C5.14344 31.1339 5.19781 31.1873 5.19781 31.253V32.2914C5.19781 32.3571 5.14344 32.4105 5.07688 32.4105H1.48062C1.41375 32.4105 1.35969 32.4636 1.35969 32.5293V35.813C1.35969 35.8784 1.30562 35.9318 1.23875 35.9318H0.12125C0.054375 35.9318 0 35.8784 0 35.813V27.7787C0 27.713 0.054375 27.6599 0.12125 27.6599H5.37719C5.44406 27.6599 5.49844 27.713 5.49844 27.7787V28.8174C5.49844 28.8828 5.44406 28.9362 5.37719 28.9362H1.48062C1.41375 28.9362 1.35969 28.9893 1.35969 29.055Z" fill="#24272A"></path><path fill-rule="evenodd" clip-rule="evenodd" d="M9.32518 31.7959C9.32518 33.5212 10.6124 34.7972 12.3208 34.7972C14.017 34.7972 15.3042 33.5212 15.3042 31.7959C15.3042 30.0706 14.017 28.7943 12.3208 28.7943C10.6124 28.7943 9.32518 30.0706 9.32518 31.7959ZM16.688 31.7959C16.6761 34.23 14.787 36.0735 12.3208 36.0735C9.85424 36.0735 7.95361 34.23 7.95361 31.7959C7.95361 29.3615 9.85424 27.518 12.3208 27.518C14.787 27.518 16.6761 29.3615 16.688 31.7959Z" fill="#24272A"></path><path fill-rule="evenodd" clip-rule="evenodd" d="M26.2645 27.6599C26.3314 27.6599 26.3854 27.713 26.3854 27.7787V32.6349C26.3854 34.9391 24.9176 36.0736 22.9804 36.0736C21.0436 36.0736 19.576 34.9391 19.576 32.6349V27.7787C19.576 27.713 19.6301 27.6599 19.697 27.6599H20.8382C20.9051 27.6599 20.9592 27.713 20.9592 27.7787V32.552C20.9592 34.1592 21.8136 34.7973 22.9804 34.7973C24.1476 34.7973 25.0017 34.1592 25.0017 32.552V27.7787C25.0017 27.713 25.056 27.6599 25.1226 27.6599H26.2645Z" fill="#24272A"></path><path fill-rule="evenodd" clip-rule="evenodd" d="M36.5759 27.7786V35.8129C36.5759 35.8786 36.5218 35.9317 36.4549 35.9317H35.6221C35.2118 35.9317 34.8293 35.7273 34.6065 35.389L30.7531 29.539L30.8856 32.4694V35.8129C30.8856 35.8786 30.8312 35.9317 30.7643 35.9317H29.6468C29.5799 35.9317 29.5259 35.8786 29.5259 35.8129V27.7786C29.5259 27.7133 29.5799 27.6599 29.6468 27.6599H30.4684C30.8784 27.6599 31.2606 27.864 31.4837 28.2019L35.3368 34.0409L35.2165 31.1225V27.7786C35.2165 27.7133 35.2709 27.6599 35.3374 27.6599H36.4549C36.5218 27.6599 36.5759 27.7133 36.5759 27.7786Z" fill="#24272A"></path><path fill-rule="evenodd" clip-rule="evenodd" d="M45.9134 31.7959C45.9134 30.1178 44.6741 28.9361 42.9778 28.9361H41.4991C41.4322 28.9361 41.3778 28.9892 41.3778 29.0549V34.5366C41.3778 34.6023 41.4322 34.6554 41.4991 34.6554H42.9778C44.6741 34.6554 45.9134 33.4856 45.9134 31.7959ZM47.2728 31.7959C47.2728 34.1827 45.4081 35.9317 42.9656 35.9317H40.1394C40.0725 35.9317 40.0184 35.8786 40.0184 35.8129V27.7786C40.0184 27.7132 40.0725 27.6598 40.1394 27.6598H42.9656C45.42 27.6598 47.2728 29.3971 47.2728 31.7959Z" fill="#24272A"></path><path fill-rule="evenodd" clip-rule="evenodd" d="M54.2244 32.2848L53.0641 29.2767C53.0247 29.1745 52.8772 29.1745 52.8378 29.2767L51.6775 32.2848C51.6475 32.3625 51.7059 32.4456 51.7906 32.4456H54.1113C54.1959 32.4456 54.2544 32.3625 54.2244 32.2848ZM54.6959 33.7103H51.2059C51.1556 33.7103 51.1106 33.7406 51.0928 33.787L50.2978 35.8549C50.2797 35.9012 50.2347 35.9316 50.1844 35.9316H49.0009C48.9159 35.9316 48.8575 35.8478 48.8881 35.7699L52.055 27.7359C52.0728 27.6901 52.1178 27.6601 52.1678 27.6601H53.7341C53.7841 27.6601 53.8288 27.6901 53.8469 27.7359L57.0138 35.7699C57.0444 35.8478 56.9859 35.9316 56.9009 35.9316H55.7175C55.6672 35.9316 55.6222 35.9012 55.6044 35.8549L54.8091 33.787C54.7913 33.7406 54.7463 33.7103 54.6959 33.7103Z" fill="#24272A"></path><path fill-rule="evenodd" clip-rule="evenodd" d="M64.3318 28.9361H61.999C61.9321 28.9361 61.8777 28.9892 61.8777 29.0549V35.8129C61.8777 35.8786 61.8237 35.9317 61.7571 35.9317H60.6396C60.5727 35.9317 60.5187 35.8786 60.5187 35.8129V29.0549C60.5187 28.9892 60.4646 28.9361 60.3977 28.9361H58.8218C58.1712 28.9361 57.6437 28.418 57.6437 27.7786C57.6437 27.7133 57.6977 27.6599 57.7646 27.6599H64.3318C64.3987 27.6599 64.4527 27.7133 64.4527 27.7786V28.8173C64.4527 28.883 64.3987 28.9361 64.3318 28.9361Z" fill="#24272A"></path><path fill-rule="evenodd" clip-rule="evenodd" d="M67.5335 27.6599H68.651C68.7179 27.6599 68.7719 27.713 68.7719 27.7787V35.813C68.7719 35.8784 68.7179 35.9318 68.651 35.9318H67.5335C67.4667 35.9318 67.4126 35.8784 67.4126 35.813V27.7787C67.4126 27.713 67.4667 27.6599 67.5335 27.6599Z" fill="#24272A"></path><path fill-rule="evenodd" clip-rule="evenodd" d="M73.0432 31.7959C73.0432 33.5212 74.3304 34.7972 76.0388 34.7972C77.7351 34.7972 79.0223 33.5212 79.0223 31.7959C79.0223 30.0706 77.7351 28.7943 76.0388 28.7943C74.3304 28.7943 73.0432 30.0706 73.0432 31.7959ZM80.406 31.7959C80.3938 34.23 78.5051 36.0735 76.0388 36.0735C73.5723 36.0735 71.6716 34.23 71.6716 31.7959C71.6716 29.3615 73.5723 27.518 76.0388 27.518C78.5051 27.518 80.3938 29.3615 80.406 31.7959Z" fill="#24272A"></path><path fill-rule="evenodd" clip-rule="evenodd" d="M90.0002 27.7786V35.8129C90.0002 35.8786 89.9461 35.9317 89.8793 35.9317H89.0461C88.6358 35.9317 88.2533 35.7273 88.0305 35.389L84.1774 29.539L84.3096 32.4694V35.8129C84.3096 35.8786 84.2552 35.9317 84.1886 35.9317H83.0711C83.0043 35.9317 82.9502 35.8786 82.9502 35.8129V27.7786C82.9502 27.7133 83.0043 27.6599 83.0711 27.6599H83.8927C84.3027 27.6599 84.6849 27.864 84.908 28.2019L88.7611 34.0409L88.6405 31.1225V27.7786C88.6405 27.7133 88.6949 27.6599 88.7618 27.6599H89.8793C89.9461 27.6599 90.0002 27.7133 90.0002 27.7786Z" fill="#24272A"></path></g><defs><clipPath id="clip0_365:3273"><rect width="90" height="36.2195" fill="white"></rect></clipPath></defs></svg> 